<svg xmlns="http://www.w3.org/2000/svg" width="88.469" height="88.265" viewBox="0 0 88.469 88.265">
  <g id="iconfinder_Simple_Business-07_5288411" transform="translate(-8.497 -8.521)">
    <path id="Tracé_257" data-name="Tracé 257" d="M95.427,9.28A3.846,3.846,0,0,0,91.965,8.7L52.731,21.781,13.5,8.7a3.846,3.846,0,0,0-5,3.654v65.39A3.846,3.846,0,0,0,11,81.4L51.385,96.787h2.693L94.465,81.4a3.846,3.846,0,0,0,2.5-3.654V12.357A3.846,3.846,0,0,0,95.427,9.28ZM16.19,17.742,48.885,28.7V87.555L16.19,75.054ZM89.273,75.054l-32.695,12.5V28.512l32.695-10.77Z" fill="#1f1351"/>
    <path id="Tracé_258" data-name="Tracé 258" d="M127.432,64.662h1.154l17.309-5.77a3.862,3.862,0,1,0-2.5-7.308l-17.309,5.77a3.846,3.846,0,0,0,1.346,7.308Z" transform="translate(-63.162 -23.456)" fill="#ff7d00"/>
    <path id="Tracé_259" data-name="Tracé 259" d="M127.433,102.9h1.154l17.309-5.77a3.862,3.862,0,0,0-2.5-7.308l-17.309,5.77a3.846,3.846,0,0,0,1.346,7.308Z" transform="translate(-63.162 -44.387)" fill="#ff7d00"/>
    <path id="Tracé_260" data-name="Tracé 260" d="M127.433,141.141h1.154l17.309-5.77a3.862,3.862,0,0,0-2.5-7.308l-17.309,5.77a3.846,3.846,0,0,0,1.346,7.308Z" transform="translate(-63.162 -65.318)" fill="#ff7d00"/>
    <path id="Tracé_261" data-name="Tracé 261" d="M56.164,56.928l-17.309-5.77a3.862,3.862,0,1,0-2.5,7.308l17.309,5.77H55.01a3.846,3.846,0,0,0,1.154-7.308Z" transform="translate(-13.818 -23.224)" fill="#ff7d00"/>
    <path id="Tracé_262" data-name="Tracé 262" d="M56.164,95.168,38.855,89.4a3.862,3.862,0,0,0-2.5,7.308l17.309,5.77H55.01a3.846,3.846,0,0,0,1.154-7.308Z" transform="translate(-13.818 -44.154)" fill="#ff7d00"/>
    <path id="Tracé_263" data-name="Tracé 263" d="M56.164,133.408l-17.309-5.77a3.862,3.862,0,0,0-2.5,7.308l17.309,5.77H55.01a3.846,3.846,0,0,0,1.154-7.308Z" transform="translate(-13.818 -65.085)" fill="#ff7d00"/>
  </g>
</svg>
