<svg xmlns="http://www.w3.org/2000/svg" width="77.737" height="88.484" viewBox="0 0 77.737 88.484">
  <g id="icon-news" transform="translate(-55.522 -10.722)">
    <g id="Groupe_64" data-name="Groupe 64" transform="translate(55.522 14.046)">
      <g id="Groupe_63" data-name="Groupe 63" transform="translate(0 0)">
        <path id="Tracé_264" data-name="Tracé 264" d="M127.43,70.324,98.1,41a7.59,7.59,0,0,0-10.93,0,7.759,7.759,0,0,0-.911,9.837v.182a54.975,54.975,0,0,1-14.937,27.87l-13.48,13.48a7.59,7.59,0,0,0,0,10.93l7.286,7.286a7.59,7.59,0,0,0,10.93,0l1.822-1.822,12.751,12.751a7.728,7.728,0,0,0,10.93-10.93L96.1,105.117,97.92,103.3a7.59,7.59,0,0,0,0-10.93l-1.275-1.275a53.005,53.005,0,0,1,20.584-8.744h.182a7.977,7.977,0,0,0,9.837-.911h0A7.654,7.654,0,0,0,127.43,70.324ZM72.6,106.939a2.432,2.432,0,0,1-3.643,0L61.67,99.652a2.432,2.432,0,0,1,0-3.643L74.421,83.258l10.93,10.93C84.076,95.28,73.875,105.663,72.6,106.939Zm25.5,7.286a2.576,2.576,0,0,1-3.643,3.643L81.708,105.117l3.643-3.643ZM88.994,97.648a44.368,44.368,0,0,1,3.825-3.461l1.639,1.639a2.432,2.432,0,0,1,0,3.643l-1.822,1.822Zm.182-7.1L78.065,79.432A57.632,57.632,0,0,0,90.634,55.387l22.588,22.406A60.172,60.172,0,0,0,89.176,90.544Zm34.61-12.933a2.432,2.432,0,0,1-3.643,0L90.816,48.283a2.576,2.576,0,1,1,3.643-3.643l29.328,29.328A2.432,2.432,0,0,1,123.787,77.611Z" transform="translate(-55.522 -38.674)" fill="#1f1351"/>
      </g>
    </g>
    <g id="Groupe_66" data-name="Groupe 66" transform="translate(68.137 66.736)">
      <g id="Groupe_65" data-name="Groupe 65" transform="translate(0)">
        <path id="Tracé_265" data-name="Tracé 265" d="M169.7,482.524a2.432,2.432,0,0,0-3.643,0l-3.643,3.643a2.576,2.576,0,1,0,3.643,3.643l3.643-3.643A2.768,2.768,0,0,0,169.7,482.524Z" transform="translate(-161.589 -481.705)" fill="#ff7d00"/>
      </g>
    </g>
    <g id="Groupe_68" data-name="Groupe 68" transform="translate(107.574 10.722)">
      <g id="Groupe_67" data-name="Groupe 67" transform="translate(0 0)">
        <path id="Tracé_266" data-name="Tracé 266" d="M495.742,10.722a2.49,2.49,0,0,0-2.55,2.55v5.283a2.55,2.55,0,0,0,5.1,0V13.272A2.49,2.49,0,0,0,495.742,10.722Z" transform="translate(-493.192 -10.722)" fill="#ff7d00"/>
      </g>
    </g>
    <g id="Groupe_70" data-name="Groupe 70" transform="translate(123.058 31.488)">
      <g id="Groupe_69" data-name="Groupe 69">
        <path id="Tracé_267" data-name="Tracé 267" d="M631.033,185.33h-5.1a2.55,2.55,0,0,0,0,5.1h5.1a2.55,2.55,0,0,0,0-5.1Z" transform="translate(-623.382 -185.33)" fill="#ff7d00"/>
      </g>
    </g>
    <g id="Groupe_72" data-name="Groupe 72" transform="translate(117.866 15.913)">
      <g id="Groupe_71" data-name="Groupe 71" transform="translate(0 0)">
        <path id="Tracé_268" data-name="Tracé 268" d="M589.294,55.193a2.432,2.432,0,0,0-3.643,0l-5.1,5.1a2.576,2.576,0,0,0,3.643,3.643l5.1-5.1A2.432,2.432,0,0,0,589.294,55.193Z" transform="translate(-579.73 -54.374)" fill="#ff7d00"/>
      </g>
    </g>
  </g>
</svg>
