<?xml version="1.0" encoding="utf-8"?>
<!-- Generator: Adobe Illustrator 24.0.3, SVG Export Plug-In . SVG Version: 6.00 Build 0)  -->
<svg version="1.1" id="Calque_1" xmlns="http://www.w3.org/2000/svg" xmlns:xlink="http://www.w3.org/1999/xlink" x="0px" y="0px"
	 viewBox="0 0 864.2 305.6" style="enable-background:new 0 0 864.2 305.6;" xml:space="preserve">
<style type="text/css">
	.st0{fill:#1B1464;}
	.st1{clip-path:url(#SVGID_2_);}
	.st2{clip-path:url(#SVGID_4_);}
	.st3{clip-path:url(#SVGID_8_);}
	.st4{clip-path:url(#SVGID_10_);}
</style>
<g>
	<path class="st0" d="M819.3,184.3c-7.1,11.2-16.6,20.3-27,28.3c-20.4,15.7-43.3,26.7-67.1,36.1c-26.7,10.5-54.1,18.5-82,24.5
		c-17.2,3.7-34.5,6.9-51.8,9.9c-10.8,1.9-21.7,3.1-32.6,4.5c-9.6,1.2-19.3,2.1-29,3.2c-9.8,0.7-19.6,1.4-29.4,2.1
		c-0.5,0-0.9,0.2-1.4,0.2c-0.6,0.1-1.2,0.2-1.8,0.2c-0.8,0-1.6,0.1-2.4,0.1c-4.1,0.1-8.2,0.3-12.3,0.4c-18.2,0.5-36.3,0.9-54.5,1.4
		c-0.2,0-0.5,0-0.7,0.1c-6.5-0.2-12.9-0.4-19.4-0.5c-9.1-0.2-18.2-0.1-27.3-0.6c-10-0.5-20-1.5-29.9-2.2c-5.6-0.4-11.2-0.9-16.7-1.3
		c-11.2-1.2-22.5-2.2-33.7-3.6c-11-1.4-22.1-2.9-33-4.8c-16.1-2.9-32.3-5.9-48.2-9.4c-29.5-6.5-58.4-15.1-86.4-26.6
		c-18.6-7.6-36.4-16.5-53-27.9C69.1,211,59.4,202.9,51.2,193c-10.9-13.3-17.6-28.1-15.8-45.7c1.2-11.8,6.2-22.1,13.3-31.4
		c11.1-14.6,25.4-25.5,40.8-34.9c24.4-14.9,50.8-25.4,78-34.1c28.1-9,56.7-16,85.8-20.9c16.7-2.8,33.5-5.5,50.3-7.6
		c17.2-2.1,34.4-3.9,51.7-5.1c36.3-2.6,72.8-3.3,109.2-2.1c14.6,0.5,29.3,1.1,43.9,2.1c11.8,0.8,23.6,1.9,35.4,3.2
		c14.4,1.6,28.7,3.1,43,5.4c18,2.9,36,6.2,53.9,10c24.8,5.3,49.2,12.1,73.1,20.8c21.8,7.9,43,17.2,62.8,29.5
		c12.1,7.6,23.5,16.1,33.1,26.7c8.7,9.7,15.6,20.4,18.3,33.4C831.1,157.4,827.5,171.3,819.3,184.3 M862.9,141.2
		c-2.9-13.9-10.4-25.4-19.9-35.8c-10.5-11.4-22.8-20.5-36-28.6c-21.5-13.2-44.6-23.2-68.3-31.6c-26-9.3-52.5-16.6-79.6-22.3
		c-19.5-4.1-39.1-7.6-58.7-10.7c-15.5-2.5-31.2-4.1-46.8-5.8c-12.8-1.4-25.7-2.6-38.6-3.4c-15.9-1-31.8-1.7-47.8-2.2
		C427.6-0.7,388,0,348.4,2.9c-18.8,1.3-37.5,3.2-56.2,5.5c-18.3,2.2-36.6,5.1-54.8,8.1c-31.6,5.3-62.8,12.7-93.4,22.4
		c-29.5,9.4-58.3,20.6-84.9,36.6c-16.8,10.1-32.4,21.8-44.4,37.5c-7.7,10-13.2,21.1-14.5,33.7c-1.9,18.9,5.3,34.8,17.2,49.1
		c8.9,10.6,19.4,19.4,30.9,27.2c18,12.2,37.5,21.8,57.7,30c30.5,12.3,61.9,21.5,94,28.5c17.4,3.8,35,7,52.5,10.1
		c11.9,2.1,23.9,3.7,35.9,5.2c12.2,1.5,24.5,2.6,36.7,3.9c6.1,0.5,12.1,0.9,18.2,1.4c10.9,0.8,21.7,1.8,32.6,2.4
		c9.9,0.5,19.8,0.4,29.7,0.6c7,0.1,14.1,0.4,21.1,0.5c0.3,0,0.5-0.1,0.8-0.1c19.8-0.5,39.5-1,59.3-1.5c4.5-0.1,8.9-0.3,13.4-0.4
		c0.9,0,1.7-0.1,2.6-0.1c0.6-0.1,1.3-0.2,1.9-0.3c0.5-0.1,1-0.2,1.5-0.3c10.7-0.8,21.3-1.5,32-2.2c10.5-1.1,21-2.2,31.5-3.4
		c11.9-1.4,23.7-2.8,35.5-4.8c18.8-3.2,37.7-6.6,56.4-10.6c30.4-6.5,60.3-15.1,89.3-26.3c25.9-10.1,50.8-21.9,73-38.7
		c11.4-8.6,21.7-18.3,29.4-30.4C862.4,172.6,866.4,157.6,862.9,141.2"/>
	<path class="st0" d="M620.6,113.7L620.6,113.7c-0.7,0.3-1.5,0.6-2.3,0.9c-1.8,1-3.5,1.9-5.3,2.9c-6.1,3.5-11.2,8-15.8,13.2
		c-3.3,4.7-6.6,9.5-10,14.2c-5.1,9-7.6,18.8-8.4,29.1c0.2,4.7,0.3,9.5,0.5,14.3c0.9,4.1,1.9,8.2,2.8,12.3
		c3.3,11.2,9.3,20.8,17.6,29.1l-0.1,0c0.2,0,0.3,0.1,0.4,0.3c7.3,7.5,15.8,13.1,25.7,16.5c4.6,1.2,9.2,2.4,13.9,3.6
		c1.6,0.3,3.2,0.6,4.9,0.7c8.8,0.7,17.6,0.2,26.1-2.5c5-2.1,10.1-4.1,15.1-6.2c2-1.2,4.1-2.2,6-3.6c3.3-2.6,6.5-5.4,9.7-8.1
		c3.5-4.3,7-8.6,10.5-12.8c4.4-6.9,7.9-14.3,9.4-22.4c0.8-4.6,1.2-9.3,1.8-13.9c0-0.8,0.1-1.6,0.1-2.4
		c-0.4-23.4-10.4-42.3-28.7-56.9c-5.9-4.7-11.7-8.6-19-10.8c-1.5-0.6-2.9-1.2-4.4-1.7c-10.3-3-20.7-3.6-31.2-1.8
		c-1.2,1.7-3.1,1.3-4.6,2.3c-3.8,2.5-9.5,1.7-13.8,3.3l0.1,0C621.3,113.3,621,113.5,620.6,113.7 M650.9,253.1
		c-41,0-74.3-33.4-74.3-74.4c0.1-41,33.5-74.3,74.5-74.2c41,0.1,74.4,33.5,74.3,74.5C725.4,220,692,253.2,650.9,253.1"/>
	<path class="st0" d="M595.1,94.1c-2.4-5.3-4.9-10.6-7.3-15.9c-0.4-0.9-0.8-1.7-1.3-2.7c3-2.2,5.9-4.3,9-6.5
		c0.3,0.6,0.7,1.1,0.9,1.7c4.7,10.8,9.5,21.7,14.3,32.5c0.7,1.5,0.6,2.3-0.9,3.3c-2.7,1.7-5.1,3.7-7.8,5.6
		c-6.4-5.1-12.7-10-19.5-15.4c0.3,1.1,0.4,1.6,0.6,2.1c2.4,6.5,4.8,13,7.3,19.5c0.5,1.4,0.3,2.1-0.8,2.9c-2.7,1.8-5.3,3.8-8,5.7
		c-9.9-8.7-19.7-17.4-29.7-26.2c3.1-2.3,6-4.4,9.1-6.7c5.1,4.8,10.2,9.6,15.3,14.4c0.1-0.1,0.3-0.2,0.4-0.2
		c-1.8-4.9-3.7-9.9-5.5-14.8c-2-5.3-2-5.2,2.5-8.5c1.5-1.1,3.1-2.2,4.7-3.4c5.5,4.4,11,8.7,16.5,13c0.2,0.1,0.4,0.2,0.6,0.3
		C595.3,94.6,595.2,94.3,595.1,94.1"/>
	<path class="st0" d="M687.2,81.4c2.7,0.8,5.1,1.5,7.5,2.1c2.1,0.5,3.6-0.6,4.2-2.5c0.6-1.9,0-3.5-1.8-4.3c-2.3-1-4.6-1.9-7.1-2.9
		C689.1,76.4,688.2,78.7,687.2,81.4 M681.4,62.3c7.9,3,15.7,5.7,23.2,8.9c5.7,2.4,7.6,6.7,6.3,12c-1.4,5.4-5.4,8.4-11.4,8.4
		c-0.2,0-0.5,0-0.9,0.1c5.3,5.7,3.5,13.1,5.6,20.2c-4.4-1.6-8.3-2.9-12.1-4.5c-0.5-0.2-0.9-1.2-1-1.8c-0.7-4.2-1.3-8.4-2-12.6
		c-0.5-2.8-1.3-3.6-4.3-4.7c-1.8,4.8-3.5,9.5-5.4,14.6c-3.7-1.3-7.4-2.7-11.3-4.1C672.5,86.7,676.9,74.7,681.4,62.3"/>
	<path class="st0" d="M742.7,152.2c0.7,1.8,1.2,3.5,1.9,5.1c1.4,3.2,3,4.3,6.5,3.9c2.4-0.3,4.8-1,7.1-1.8c6.7-2.5,8.2-7.2,4.4-13.6
		C756.1,147.8,749.6,149.9,742.7,152.2 M730.7,143.5c12.5-4,24.5-8,36.9-12c0.4,1.1,0.7,2.1,1,3.2c1.8,5.6,3.8,11.2,5.3,17
		c1.6,6-0.2,11.3-5.1,15.2c-5,3.9-10.9,6-17.1,6c-7,0.1-11.8-3.8-14.3-10.2C734.8,156.6,732.9,150.1,730.7,143.5"/>
	<path class="st0" d="M648.2,81.1c-0.8-2.9-1.3-6-2.5-8.8c-1.1-2.8-4.4-4.1-7.3-3.7c-3.4,0.4-6,2.4-6.7,5.5c-1,4.3-0.5,8.5,1.3,12.5
		c1,2.1,2.7,3.4,5.1,3.9C644,91.5,647.8,87.9,648.2,81.1 M638.5,99.5c-10.1,0.3-17.4-6-18.7-16.3c-0.4-3.2-0.4-6.7,0.2-9.9
		c1.5-7.4,7.4-12.4,15.3-13.4c3-0.4,6.2-0.5,9.2-0.1c7,0.9,11.5,5.1,13.7,11.8c1.5,4.7,1.9,9.6,0.8,14.5
		c-1.8,7.5-8.5,12.6-17.2,13.2C640.7,99.5,639.6,99.5,638.5,99.5"/>
	<path class="st0" d="M735.2,89.6c2.8,3,5.4,5.8,8.1,8.7c-3.5,3.3-7.1,6.6-10.6,9.9c-3.5,3.3-7.1,6.6-10.7,10
		c4.3,4.6,8.4,9.1,12.7,13.7c-2.3,2.2-4.6,4.3-6.9,6.5c-6.9-7.4-13.8-14.8-20.9-22.4C716.3,107.2,725.7,98.4,735.2,89.6"/>
	<path class="st0" d="M599.8,230.1L599.8,230.1C599.8,230.1,599.8,230.1,599.8,230.1L599.8,230.1z"/>
	<path class="st0" d="M620.7,114.1c-0.8,0.3-1.6,0.6-2.3,0.9C619.1,114.7,619.9,114.4,620.7,114.1"/>
	<path class="st0" d="M621.7,113.6c-0.3,0.2-0.7,0.3-1,0.5C621,114,621.3,113.8,621.7,113.6"/>
	<path class="st0" d="M599.7,230.1c0.1,0.1,0.2,0.2,0.4,0.3C600,230.2,599.9,230.1,599.7,230.1"/>
	<path class="st0" d="M594.7,94.4c0.2,0.1,0.4,0.2,0.6,0.3c-0.1-0.2-0.2-0.5-0.3-0.7C594.9,94.2,594.8,94.3,594.7,94.4"/>
</g>
<g>
	<defs>
		<path id="SVGID_1_" d="M594.7,94.4c0.2,0.1,0.4,0.2,0.6,0.3c-0.1-0.2-0.2-0.5-0.3-0.7C594.9,94.2,594.8,94.3,594.7,94.4"/>
	</defs>
	<use xlink:href="#SVGID_1_"  style="overflow:visible;fill:#1B1464;"/>
	<clipPath id="SVGID_2_">
		<use xlink:href="#SVGID_1_"  style="overflow:visible;"/>
	</clipPath>
	<g class="st1">
		<g>
			<defs>
				<polygon id="SVGID_3_" points="595.3,94.1 595.4,94.8 594.7,94.8 594.7,94.1 				"/>
			</defs>
			<clipPath id="SVGID_4_">
				<use xlink:href="#SVGID_3_"  style="overflow:visible;"/>
			</clipPath>
			<g class="st2">
				<defs>
					
						<rect id="SVGID_5_" x="594.7" y="94.1" transform="matrix(0.9997 -2.500156e-02 2.500156e-02 0.9997 -2.1753 14.906)" width="0.7" height="0.7"/>
				</defs>
				<clipPath id="SVGID_6_">
					<use xlink:href="#SVGID_5_"  style="overflow:visible;"/>
				</clipPath>
				<g style="clip-path:url(#SVGID_6_);">
					
						<image style="overflow:visible;" width="4" height="4" xlink:href="9A1987FF0A287E45.jpg"  transform="matrix(0.24 0 0 0.24 594.577 93.9473)">
					</image>
				</g>
			</g>
		</g>
	</g>
</g>
<g>
	<defs>
		<path id="SVGID_7_" d="M594.7,94.4c0.2,0.1,0.4,0.2,0.6,0.3c-0.1-0.2-0.2-0.5-0.3-0.7C594.9,94.2,594.8,94.3,594.7,94.4"/>
	</defs>
	<use xlink:href="#SVGID_7_"  style="overflow:visible;fill:#1B1464;"/>
	<clipPath id="SVGID_8_">
		<use xlink:href="#SVGID_7_"  style="overflow:visible;"/>
	</clipPath>
	<g class="st3">
		<g>
			<defs>
				<polygon id="SVGID_9_" points="595.3,94.1 595.4,94.8 594.7,94.8 594.7,94.1 				"/>
			</defs>
			<clipPath id="SVGID_10_">
				<use xlink:href="#SVGID_9_"  style="overflow:visible;"/>
			</clipPath>
			<g class="st4">
				<defs>
					
						<rect id="SVGID_11_" x="594.7" y="94.1" transform="matrix(0.9997 -2.500156e-02 2.500156e-02 0.9997 -2.1753 14.906)" width="0.7" height="0.7"/>
				</defs>
				<clipPath id="SVGID_12_">
					<use xlink:href="#SVGID_11_"  style="overflow:visible;"/>
				</clipPath>
				<g style="clip-path:url(#SVGID_12_);">
					
						<image style="overflow:visible;" width="4" height="4" xlink:href="9A1987FF0A287E47.jpg"  transform="matrix(0.24 0 0 0.24 594.577 93.9473)">
					</image>
				</g>
			</g>
		</g>
	</g>
</g>
<g>
	<path class="st0" d="M694.5,206L694.5,206c-2.8,2.8-5.5,6-8.3,9.1c-1.7,1.9-2,3.9-1.2,6.4c0.8,2.8,0.8,5.6-1.6,7.9
		c-2.2,1-4.5,2-6.7,3.1c-0.3,0.1-0.7,0.4-0.7,0.6c-0.5,4-4,5.3-6.5,7.5c-2.4,0.6-4.8,1.3-7.2,1.8c-1.7,0.4-3.5,0.8-5.3,0.9
		c-4.3,0.2-7.4-2.5-10.4-5.1c-1.1-0.9-1.8-2.2-2.8-3.3c-1.5-1.7-2.1-4-0.7-5.5c2.9-3.2,0.5-5.7-0.7-8.2c-0.8-1.7-2.2-3.2-3.7-4.4
		c-2.2-1.8-2.5-3.9-1.8-6.4c1.2-4.6,0.9-5.1-3.7-5.6c-0.9-0.1-2.1-0.4-2.6-1.1c-2.5-3.2-5.8-2.8-9.2-2.7c-1.5,0.1-2.9-0.1-4.4-0.2
		c-1.1-0.3-2.3-0.8-3.4-0.8c-3.3-0.1-5.5-1.7-7.1-4.5c-1.8-3.2-3.8-6.4-5.7-9.6c-0.8-0.5-1.6-1-2.4-1.5c0.8,0.5,1.6,1,2.4,1.5
		c0.6-2.8,1.2-5.6,1.7-8.4c0.3-1.6,0.1-3.3,0.5-4.9c0.4-1.8,1.1-3.6,1.7-5.3c0.1-0.2,0.4-0.3,0.5-0.5c1.6-3.5,4.8-5.4,7.9-7.3
		c-1-0.8-2-1.6-3-2.4c1,0.8,2,1.6,3,2.4c0.3-0.3,0.9-0.6,0.9-1c0.7-3.6,4.1-4.7,6.4-6.8c0.3-0.3,1-0.3,1.5-0.1
		c3,1.2,5.6,0.5,8.1-1.4c3.5,0.1,7.1,1.2,10.7,0.1c0.7-0.2,1.7,0.3,2.5,0.4c-0.7,1.4-1.9,2.8-1.8,3.9c0.2,1.2,1.5,2.5,2.7,3.1
		c1.3,0.6,3,0.5,4.5,0.7c-0.1,0.3-0.2,0.5-0.3,0.8c0.9,0.6,1.7,1.4,2.6,1.7c1.9,0.6,3.3-0.1,4.6-1.6c0.9-1,2-1.9,3.5-0.7
		c0.4,0.3,1.3,0.2,1.9,0.3c-0.2-0.4-0.5-0.7-0.7-1.1c0.2,0.4,0.5,0.7,0.7,1.1c2.4,0.8,4.8,1.6,7.3,2.3c0.3,0.1,0.7-0.2,1.1-0.4
		c3.6-2,5-1.4,5,2.6c0,1.9,0.7,2.9,1.8,4.2c1.1,1.2,2.1,2.7,2.8,4.2c1.4,2.7,3.6,5,3.5,8.3c0,0.3,0.2,0.6,0.4,0.8
		c1.9,2.1,3.9,4.1,5.7,6.2c0.8,0.9,1.5,2,2.1,3.1c1.2,2.2,2.4,2.8,4.7,1.8c1.9-0.8,3.5-2.1,5.3-3.2c-0.3-0.5-0.7-0.9-1-1.4
		c0.3,0.5,0.7,0.9,1,1.4c0.2,0,0.3,0,0.4-0.1c0.3,0,0.5,0,0.8-0.1c0,0.1,0.1,0.2,0.1,0.1v0C700.3,194.9,699.8,201.4,694.5,206
		 M697.2,223.5c-2.9,3.3-5.9,6.5-9,9.6c-0.3,0.3-1.2-0.1-2.2-0.1c1.3-2,3.9-2.2,3-4.7c-0.1-0.1,0.7-0.6,1-0.9c2.4-2,4.7-3.9,7.3-6.1
		C697.2,222.1,697.5,223.1,697.2,223.5 M632.1,124.9c-1.3,0.8-2.5,1.7-3.8,2.4c-0.2,0.1-0.9-0.8-1.4-1.2c1.3-0.8,2.5-1.7,3.8-2.3
		C631.7,123.3,632.6,123.4,632.1,124.9 M635.6,119.9c0.6,0.7,1,1.3,1.5,2c-2.1,1.9-0.4,3.4,0.6,5.3c-0.7,0.6-1.4,1.3-2,1.9
		c-1.6,0.2-3.2,0.4-5.3,0.7c0.8-1.7,1.4-2.9,1.9-4.1c0.4-0.5,1.4-1.3,1.2-1.5C632.3,121.9,634.4,121.2,635.6,119.9 M625.9,247.5
		c4.7,1.2,9.4,2.5,14.1,3.7c1.7,0.3,3.3,0.6,4.9,0.8c9,0.7,17.6,0.2,26.5-2.5c4.7-2.1,10.3-4.2,15.4-6.3c2-1.2,4.2-2.3,6.1-3.7
		c3.4-2.6,6.6-5.5,9.9-8.2c3.6-4.4,7.1-8.7,10.7-13.1c4.5-7,8-14.5,9.5-22.8c0.9-4.7,1.2-9.4,1.8-14.2c-0.3-0.4-0.8-0.7-0.9-1.1
		c-0.9-2.9-1.6-5.9-2.5-8.7c-0.4-1.4-1-2.9-1.8-4.1c-1.3-1.7-3.1-3.1-4.5-4.7c-1.1-1.3-1.9-1.1-3.2-0.3c-2.7,1.8-4.8,1.4-6.5-0.7
		c-1.1,0.3-2.3,1.1-3,0.8c-1.6-0.6-3.1-1.6-4.3-2.8c-0.9-0.9-1.7-1.4-2.5-0.4c-0.4,0.5-0.2,1.8,0.2,2.4c0.8,1.3,1.8,2.4,2.8,3.6
		c1.9,2.4,3.3,2.5,5.4,0.1c0.4-0.4,0.5-1,0.5-1.1c1.8,1.2,3.1,2,4.2,3c0.4,0.4,0.8,1.3,0.7,1.9c-0.7,3.8-1.4,7.5-4.4,10.4
		c-2.2,2.1-4.3,4.4-6.4,6.6c-1.5,0.6-2.9,1.2-4.7,2c-2.8-10.4-11.2-17-16.2-26c-0.2,0.7-0.3,1.2-0.5,1.9c-2.3-2-2-2.9-1-5.4
		c1.3-3,1.7-6.3,2.5-9.4c-0.2-0.1-0.4-0.3-0.6-0.4c-2,2.3-4.6,1.1-6.7,1.7c-3.4,1-4.8-1.4-6.8-2.2c-0.2-1.6-0.3-3-0.5-4.8
		c-1.8,0.6-3.2,1-4.3,1.4c0.2,2,0.4,3.8,0.6,5.7c-0.2,0.1-0.5,0.1-0.7,0.2c-0.8-1.3-2-2.4-2.5-3.9c-1.5-4.7-5.3-7.2-8.8-9.8
		c-1.9,1.2-2.3,2.4-0.4,3.9c1.6,1.2,3.1,2.6,4.4,3.7c0,1-0.1,2.1-0.1,3.1c-3.1-4-7.3-6.5-11.7-8.5c-1.1,0.1-2.2-0.1-3.3-0.2
		c-0.4,0-1,0-1.3,0.3c-2.5,2.6-4.9,5.2-7.3,7.8c-3.1,2.1-6,0.4-9.1-0.8c0.3-1.2,0.7-2.6,1.1-3.9c0.9-1.6,1.9-3.1,2.8-4.8
		c1.4,0.1,2.9,0.4,4.4,0.4c1.1,0,2.5,0.1,3.1-0.5c1-1,1.5-2.5,0.3-3.9c-0.5-0.6-0.9-1.4-1.3-2.1c2-0.5,3.8-0.9,5.5-1.3
		c0.9-0.5,1.8-0.9,2.7-1.4c2.3-1.3,4.5-2.6,6.8-3.9c0.1,0.2,0.1,0.3,0.2,0.5c0.6-1.4,1.2-2.8,1.7-4.2c0.3,0.1,0.5,0.2,0.8,0.3
		c-0.2,1.1-0.4,2.3-0.7,3.6c1.1-0.1,2.4-0.7,3.2-0.3c2.4,1.2,4.4-0.7,6.6-0.5c0.2,0,0.6-0.3,0.7-0.5c0.9-1.6,1.7-3.2,2.5-4.9
		c-1.7-0.9-2.8-1.9-1-3.6c0.3-0.3,0.2-1,0.3-1.5c-0.5-0.1-1.1-0.4-1.3-0.2c-1.3,1.1-3,2.2-3.8,3.7c-0.8,1.5-0.7,3.4-1.1,5.1
		c-1.4,0.4-2.6,0.8-3.6,1.1c-0.2-1.3-0.5-2.6-0.7-3.7c-1.6,0.2-2.9,0.3-4.1,0.5c-0.2-0.2-0.3-0.4-0.5-0.6c0.7-1.1,1.4-2.2,2.1-3.4
		c1.9-1.1,3.9-2.1,5.7-3.4c5.3-3.7,7.9-4.1,13.7-1.3c-0.2,0.4-0.5,0.8-0.5,1.2c0,0.6,0,1.4,0.3,1.7c0.5,0.4,1.7,0.6,1.9,0.4
		c0.7-1.2,3.3-1.1,2.4-3.4c0.4-0.2,0.8-0.4,1.3-0.5c0.4,0,0.9,0.3,1.2,0.2c1.5-0.5,2.9-1,4.3-1.6c-1.5-0.6-2.9-1.2-4.5-1.7
		c-10.4-3-21-3.7-31.7-1.8c-1.7,0.8-3.4,1.6-5.1,2.4c-4.2,2.5-9.1,1.9-13.6,3.3l0.1,0c-0.3,0.2-0.7,0.3-1,0.5l0.1,0
		c-0.8,0.3-1.6,0.6-2.4,0.9c-1.8,1-3.6,2-5.4,3c-6.2,3.5-11.4,8.1-16,13.5c-3.4,4.8-6.8,9.6-10.1,14.4c-5.2,9.2-7.7,19.1-8.5,29.5
		c0.2,4.8,0.3,9.7,0.5,14.5c1,4.2,1.9,8.3,2.9,12.5c2.2,2.8,0.5,7,2.6,9.8c0.3,0.4,1.3,3.4,4.7,6.3c4.1,3.5,0.3,5.1,5,7.9
		c1.6,1,2.7,2.2,3.8,3.8c0.4,0.7,1.4,0.9,1.7,1.7c0.1,0.1,0.2,0.1,0.3,0.2C607.2,238.2,615.8,244,625.9,247.5"/>
	<path class="st0" d="M700.5,189c-0.3,0-0.6,0-0.9,0.1C699.9,189.1,700.2,189.1,700.5,189"/>
	<path class="st0" d="M190.9,146.1c0.5,0.1,1.1,0.1,1.7,0.2c0.6,0,1.6,0.1,2.9,0.1c4.6,0,8.3-1.3,11-3.9c2.7-2.6,4-6.2,4-10.7
		c0-3.8-1.1-6.7-3.2-8.6c-2.1-1.9-5.3-2.9-9.4-2.9c-0.3,0-0.8,0-1.4,0.1c-0.6,0.1-1.1,0.1-1.3,0.1L190.9,146.1z M181.7,206.5
		c0.7,0.1,1.4,0.2,2.1,0.3c0.7,0.1,1.7,0.1,2.9,0.1c4.9,0,8.6-1.6,11.2-4.9c2.5-3.3,3.8-8,3.8-14.1c0-4.7-1.2-8.2-3.5-10.6
		c-2.3-2.3-5.8-3.5-10.5-3.5h-1.2L181.7,206.5z M135.7,237.6l23.7-149h38.5c18.6,0,32,2.7,40.2,8.1c8.2,5.4,12.2,14.1,12.2,26.2
		c0,9.8-2.7,17.7-8,23.8c-5.3,6.1-13.3,10.2-23.9,12.5c7.8,2.2,13.9,6,18.1,11.5c4.3,5.5,6.4,12.2,6.4,20c0,7-1.5,13.6-4.4,19.8
		c-2.9,6.2-7,11.4-12.3,15.7c-4.9,4-10.7,6.9-17.3,8.7c-6.6,1.8-15.5,2.7-26.6,2.7H135.7z"/>
	<path class="st0" d="M304.2,155.1h2.2c6.3,0,11.2-2,14.6-6c3.4-4,5.1-9.7,5.1-17.2c0-4.3-1.1-7.4-3.3-9.5c-2.2-2-5.5-3.1-10.1-3.1
		c-0.3,0-0.7,0-1.4,0.1c-0.6,0.1-1.2,0.1-1.6,0.1L304.2,155.1z M249.4,237.6l23.7-149h35.1c22,0,37.2,2.9,45.6,8.7
		c8.3,5.8,12.5,15.6,12.5,29.6c0,12.2-2.6,22.2-7.9,30c-5.3,7.8-12.9,13-22.8,15.5l18.4,65.2h-44.1l-9.4-60.2l-9.4,60.2H249.4z"/>
</g>
<polygon class="st0" points="367.5,237.6 391.1,88.7 432.7,88.7 409.1,237.6 "/>
<g>
	<path class="st0" d="M527.5,126.9c-2.4-1.3-4.8-2.2-6.9-2.8c-2.2-0.5-4.4-0.8-6.6-0.8c-9.7,0-17.6,4.6-23.5,13.9
		c-5.9,9.3-8.9,21.6-8.9,37c0,9.9,1.8,17.2,5.4,21.9c3.6,4.8,9,7.1,16.4,7.1c1.8,0,3.7-0.2,5.8-0.6c2.1-0.4,4.3-0.9,6.6-1.7
		l-6.3,35.9c-2.9,1.2-6,2-9.3,2.6c-3.3,0.5-7.1,0.8-11.4,0.8c-16.8,0-29.6-4.9-38.5-14.7c-8.9-9.8-13.3-24-13.3-42.6
		c0-29.2,6.7-52.7,20.2-70.5c13.5-17.8,31.3-26.7,53.6-26.7c4.1,0,8.1,0.4,11.9,1.1c3.9,0.7,7.7,1.8,11.5,3.1L527.5,126.9z"/>
</g>
</svg>
