<?xml version="1.0" encoding="utf-8"?>
<!-- Generator: Adobe Illustrator 24.0.3, SVG Export Plug-In . SVG Version: 6.00 Build 0)  -->
<svg version="1.1" id="Слой_1" xmlns="http://www.w3.org/2000/svg" xmlns:xlink="http://www.w3.org/1999/xlink" x="0px" y="0px"
	 viewBox="0 0 44 43.4" style="enable-background:new 0 0 44 43.4;" xml:space="preserve">
<style type="text/css">
	.st0{fill:#FFFFFF;}
</style>
<g>
	<path class="st0" d="M30.8,25.7c-0.6,0-1.1,0.3-1.3,0.5l-2.6,2.6c0,0-0.1,0.1-0.4,0.1c-1.4,0-4.5-1.6-7.5-4.6
		c-4.1-4.1-5-7.5-4.6-7.9l2.6-2.6c1.7-1.7-1.3-5.3-3.3-7.2c-0.9-0.9-3.9-3.8-5.9-3.8C7.2,2.7,6.7,3,6.5,3.2L1.3,8.4
		c-1.6,1.6-1,4.6,1.7,9c2.3,3.8,5.9,8.3,10.2,12.6c6.4,6.4,14.8,12.8,19.3,12.8h0c1.2,0,1.9-0.5,2.3-0.9l5.2-5.2
		c1.7-1.7-1.3-5.3-3.3-7.2C35.8,28.6,32.8,25.7,30.8,25.7z"/>
	<path class="st0" d="M38.1,5.1c-2.9-2.9-6.7-4.4-10.7-4.4c0,0,0,0,0,0C26.6,0.7,26,1.3,26,2s0.6,1.3,1.3,1.3c0,0,0,0,0,0
		c3.4,0,6.5,1.3,8.9,3.7c2.4,2.4,3.7,5.5,3.7,8.9c0,0.7,0.6,1.3,1.3,1.3c0.7,0,1.3-0.6,1.3-1.3C42.5,11.8,41,8,38.1,5.1z"/>
	<path class="st0" d="M25.6,8.5C25.6,8.5,25.6,8.5,25.6,8.5c2.4,0,4.7,0.9,6.4,2.7c1.7,1.7,2.7,4,2.7,6.4c0,0.7,0.6,1.3,1.3,1.3
		c0.7,0,1.3-0.6,1.3-1.3c0-3.1-1.2-6.1-3.4-8.3c-2.2-2.2-5.2-3.4-8.3-3.4c0,0,0,0,0,0c-0.7,0-1.3,0.6-1.3,1.3S24.9,8.5,25.6,8.5z"/>
	<path class="st0" d="M23.9,13.7C23.9,13.7,23.9,13.7,23.9,13.7c1.5,0,2.9,0.6,4,1.6c1.1,1.1,1.6,2.5,1.6,4c0,0.7,0.6,1.3,1.3,1.3
		s1.3-0.6,1.3-1.3c0-2.2-0.9-4.3-2.4-5.8c-1.6-1.6-3.6-2.4-5.8-2.4c0,0,0,0,0,0c-0.7,0-1.3,0.6-1.3,1.3S23.2,13.7,23.9,13.7z"/>
</g>
</svg>
