<?xml version="1.0" ?><svg data-name="Layer 8" id="Layer_8" viewBox="0 0 50 50" xmlns="http://www.w3.org/2000/svg"><defs><style>.cls-1{fill:#010101;}</style></defs><title/><path class="cls-1" d="M47.2,2.4a2,2,0,0,0-1.8-.3L25,8.9,4.6,2.1A2,2,0,0,0,2,4V38a2,2,0,0,0,1.3,1.9l21,8h1.4l21-8A2,2,0,0,0,48,38V4A2,2,0,0,0,47.2,2.4ZM6,6.8l17,5.7V43.1L6,36.6V6.8ZM44,36.6L27,43.1V12.4L44,6.8V36.6Z"/><path class="cls-1" d="M31,19h0.6l9-3a2,2,0,0,0-1.3-3.8l-9,3A2,2,0,0,0,31,19Z"/><path class="cls-1" d="M31,28h0.6l9-3a2,2,0,0,0-1.3-3.8l-9,3A2,2,0,0,0,31,28Z"/><path class="cls-1" d="M31,37h0.6l9-3a2,2,0,0,0-1.3-3.8l-9,3A2,2,0,0,0,31,37Z"/><path class="cls-1" d="M19.6,15.1l-9-3a2,2,0,0,0-1.3,3.8l9,3H19A2,2,0,0,0,19.6,15.1Z"/><path class="cls-1" d="M19.6,24.1l-9-3a2,2,0,0,0-1.3,3.8l9,3H19A2,2,0,0,0,19.6,24.1Z"/><path class="cls-1" d="M19.6,33.1l-9-3a2,2,0,0,0-1.3,3.8l9,3H19A2,2,0,0,0,19.6,33.1Z"/></svg>