<?xml version="1.0" encoding="utf-8"?>
<!-- Generator: Adobe Illustrator 24.0.3, SVG Export Plug-In . SVG Version: 6.00 Build 0)  -->
<svg version="1.1" id="Calque_1" xmlns="http://www.w3.org/2000/svg" xmlns:xlink="http://www.w3.org/1999/xlink" x="0px" y="0px"
	 viewBox="0 0 50 50" style="enable-background:new 0 0 50 50;" xml:space="preserve">
<g id="Layer_1">
	<g>
		<path d="M43.3,43.3H6.7c-3.8,0-6.8-3.1-6.8-6.8V13.6c0-3.8,3.1-6.8,6.8-6.8h36.5c3.8,0,6.8,3.1,6.8,6.8v22.8
			C50.1,40.2,47,43.3,43.3,43.3z M6.7,11.3c-1.3,0-2.3,1-2.3,2.3v22.8c0,1.3,1,2.3,2.3,2.3h36.5c1.3,0,2.3-1,2.3-2.3V13.6
			c0-1.3-1-2.3-2.3-2.3H6.7z"/>
	</g>
	<g>
		<path d="M20.4,31.8h-9.1c-1.3,0-2.3-1-2.3-2.3s1-2.3,2.3-2.3h9.1c1.3,0,2.3,1,2.3,2.3S21.7,31.8,20.4,31.8z"/>
	</g>
	<g>
		<path d="M20.4,22.7h-9.1c-1.3,0-2.3-1-2.3-2.3s1-2.3,2.3-2.3h9.1c1.3,0,2.3,1,2.3,2.3S21.7,22.7,20.4,22.7z"/>
	</g>
	<g>
		<circle cx="34.1" cy="21.6" r="4.6"/>
	</g>
	<g>
		<g>
			<path d="M34.1,28.1c-3.6,0-5.7,1.6-5.7,3.3c0,0.8,2.1,1.6,5.7,1.6c3.3,0,5.7-0.8,5.7-1.6C39.8,29.7,37.6,28.1,34.1,28.1z"/>
		</g>
	</g>
</g>
</svg>
