<?xml version="1.0" encoding="utf-8"?>
<!-- Generator: Adobe Illustrator 24.0.3, SVG Export Plug-In . SVG Version: 6.00 Build 0)  -->
<svg version="1.1" id="Capa_1" xmlns="http://www.w3.org/2000/svg" xmlns:xlink="http://www.w3.org/1999/xlink" x="0px" y="0px"
	 viewBox="0 0 50 50" style="enable-background:new 0 0 50 50;" xml:space="preserve">
<style type="text/css">
	.st0{fill:#0066CC;}
	.st1{fill:#93BBE4;}
</style>
<g>
	<g>
		<g>
			<path class="st0" d="M43.1,19.9L27,3.8c-1.7-1.7-4.4-1.7-6,0c-1.5,1.5-1.6,3.8-0.5,5.4l0,0.1c-1.2,5.8-4,11.1-8.2,15.3l-7.4,7.4
				c-1.7,1.7-1.7,4.4,0,6l4,4c1.7,1.7,4.4,1.7,6,0l1-1l7,7c1.7,1.7,4.4,1.7,6,0c1.7-1.7,1.7-4.4,0-6l-3-3l1-1c1.7-1.7,1.7-4.4,0-6
				l-0.7-0.7c3.4-2.4,7.2-4,11.3-4.8l0.1,0c1.7,1.1,3.9,0.9,5.4-0.5l0,0C44.8,24.2,44.8,21.5,43.1,19.9z M13,40
				c-0.6,0.6-1.5,0.6-2,0l-4-4c-0.6-0.6-0.6-1.5,0-2l7-7l6,6C19.3,33.6,13.7,39.3,13,40z M27,44c0.6,0.6,0.6,1.5,0,2
				c-0.6,0.6-1.5,0.6-2,0l-7-7l2-2L27,44z M22,34.9c0.4-0.4,1.1-1.1,2.1-1.9l0.9,0.9c0.6,0.6,0.6,1.5,0,2l-1,1L22,34.9z M22.1,31
				l-6.1-6.1c3.3-3.8,5.7-8.3,6.9-13.2L35.3,24C30.4,25.3,25.9,27.7,22.1,31z M41.1,23.9c-0.6,0.6-1.5,0.6-2,0L23,7.8
				c-0.6-0.6-0.6-1.5,0-2c0.6-0.6,1.5-0.6,2,0l16.1,16.1C41.7,22.4,41.7,23.3,41.1,23.9z"/>
		</g>
	</g>
	<g>
		<g>
			<path class="st1" d="M15,31.9c-0.6-0.6-1.5-0.6-2,0l-2,2c-0.6,0.6-0.6,1.5,0,2c0.6,0.6,1.5,0.6,2,0l2-2
				C15.5,33.4,15.5,32.5,15,31.9z"/>
		</g>
	</g>
	<g>
		<g>
			<path class="st1" d="M33.6,0.7c-0.8,0-1.4,0.6-1.4,1.4V5c0,0.8,0.6,1.4,1.4,1.4C34.4,6.4,35,5.8,35,5V2.1
				C35,1.3,34.4,0.7,33.6,0.7z"/>
		</g>
	</g>
	<g>
		<g>
			<path class="st1" d="M44.9,12.1h-2.8c-0.8,0-1.4,0.6-1.4,1.4s0.6,1.4,1.4,1.4h2.8c0.8,0,1.4-0.6,1.4-1.4S45.7,12.1,44.9,12.1z"/>
		</g>
	</g>
	<g>
		<g>
			<path class="st1" d="M43.1,4c-0.6-0.6-1.5-0.6-2,0l-2.8,2.8c-0.6,0.6-0.6,1.5,0,2c0.6,0.6,1.5,0.6,2,0L43.1,6
				C43.7,5.4,43.7,4.5,43.1,4z"/>
		</g>
	</g>
</g>
</svg>
