<svg xmlns="http://www.w3.org/2000/svg" width="39.898" height="38.236" viewBox="0 0 39.898 38.236">
  <path id="iconfinder_140_111071" d="M31.949,74.814A29.456,29.456,0,0,0,47.293,79.27a26.578,26.578,0,0,0,6.858-.831,3.537,3.537,0,0,0,2.735-3.325,3.318,3.318,0,0,0-1.122-2.493h.29a3.325,3.325,0,1,0,0-6.65h1.663a3.325,3.325,0,0,0,0-6.65H68.523a3.325,3.325,0,0,0,0-6.65H49.562A1.662,1.662,0,0,1,47.9,51.009a1.59,1.59,0,0,1,.067-.449l1.912-4.7a3.327,3.327,0,1,0-6.043-2.776c-2.784,5.395-6.2,9.717-11.886,12.743V74.814Z" transform="translate(-31.949 -41.034)" fill="#ff7d00" fill-rule="evenodd"/>
</svg>
