<svg xmlns="http://www.w3.org/2000/svg" width="130.946" height="101.549" viewBox="0 0 130.946 101.549">
  <g id="Layer_1" transform="translate(0.1 -0.646)">
    <g id="Groupe_56" data-name="Groupe 56" transform="translate(-0.1 0.646)">
      <path id="Tracé_253" data-name="Tracé 253" d="M113.329,108.349H17.672C7.741,108.349-.1,99.725-.1,89.431V25.719C-.1,15.147,8,6.8,17.672,6.8h95.4c9.932,0,17.772,8.625,17.772,18.919V89.152C131.1,99.725,123,108.349,113.329,108.349ZM17.672,19.32a6.114,6.114,0,0,0-6.011,6.4V89.152a6.114,6.114,0,0,0,6.011,6.4h95.4a6.114,6.114,0,0,0,6.011-6.4V25.719a6.114,6.114,0,0,0-6.011-6.4Z" transform="translate(0.1 -6.8)" fill="#1f1351"/>
    </g>
    <g id="Groupe_57" data-name="Groupe 57" transform="translate(23.684 56.117)">
      <path id="Tracé_254" data-name="Tracé 254" d="M38.795,39.222H15.011a6.011,6.011,0,1,1,0-12.022H38.795a6.011,6.011,0,1,1,0,12.022Z" transform="translate(-9 -27.2)" fill="#1f1351"/>
    </g>
    <g id="Groupe_58" data-name="Groupe 58" transform="translate(23.684 32.333)">
      <path id="Tracé_255" data-name="Tracé 255" d="M38.795,30.122H15.011a6.011,6.011,0,1,1,0-12.022H38.795a6.011,6.011,0,0,1,0,12.022Z" transform="translate(-9 -18.1)" fill="#1f1351"/>
    </g>
    <g id="Groupe_59" data-name="Groupe 59" transform="translate(77.262 29.458)">
      <circle id="Ellipse_63" data-name="Ellipse 63" cx="12.022" cy="12.022" r="12.022" fill="#ff7d00"/>
    </g>
    <g id="Groupe_61" data-name="Groupe 61" transform="translate(74.387 58.469)">
      <g id="Groupe_60" data-name="Groupe 60">
        <path id="Tracé_256" data-name="Tracé 256" d="M43.3,28.1c-9.409,0-14.9,4.182-14.9,8.625,0,2.091,5.489,4.182,14.9,4.182,8.625,0,14.9-2.091,14.9-4.182C58.195,32.282,52.445,28.1,43.3,28.1Z" transform="translate(-28.4 -28.1)" fill="#ff7d00"/>
      </g>
    </g>
  </g>
</svg>
